<?xml version="1.0" standalone="no"?>
<!DOCTYPE svg PUBLIC "-//W3C//DTD SVG 20010904//EN"
 "http://www.w3.org/TR/2001/REC-SVG-20010904/DTD/svg10.dtd">
<svg version="1.0" xmlns="http://www.w3.org/2000/svg"
 width="251.000000pt" height="251.000000pt" viewBox="0 0 251.000000 251.000000"
 preserveAspectRatio="xMidYMid meet">
<metadata>
Created by potrace 1.14, written by Peter Selinger 2001-2017
</metadata>
<g transform="translate(0.000000,251.000000) scale(0.100000,-0.100000)"
fill="#000000" stroke="none">
<path d="M80 1860 l0 -570 570 0 570 0 0 570 0 570 -570 0 -570 0 0 -570z
m1090 0 l0 -520 -520 0 -520 0 0 520 0 520 520 0 520 0 0 -520z"/>
<path d="M1290 1860 l0 -570 570 0 570 0 0 570 0 570 -570 0 -570 0 0 -570z"/>
<path d="M80 650 l0 -570 570 0 570 0 0 570 0 570 -570 0 -570 0 0 -570z"/>
<path d="M1290 650 l0 -570 570 0 570 0 0 570 0 570 -570 0 -570 0 0 -570z
m1090 0 l0 -520 -520 0 -520 0 0 520 0 520 520 0 520 0 0 -520z"/>
</g>
</svg>
